<svg width="325" height="128" viewBox="0 0 325 128" fill="none" xmlns="http://www.w3.org/2000/svg">
<path d="M128.541 61.4729C128.88 62.4905 129.219 63.7345 129.559 65.2043C129.936 66.6366 130.218 67.8056 130.406 68.7102C130.595 67.8056 130.859 66.6366 131.198 65.2043C131.575 63.7345 131.933 62.4905 132.273 61.4729L136.795 47.9036H145.615L130.915 89.177H122.039L126.279 77.4739L114.632 47.9036H123.848L128.541 61.4729ZM239.064 47.3381C243.021 47.3382 246.149 48.3187 248.448 50.2786C250.785 52.2009 251.954 54.8021 251.954 58.0813V79.0002H243.756V73.9114H243.581C243.225 75.3478 242.455 76.5541 241.269 77.5295C239.61 78.8865 237.386 79.5657 234.597 79.5657C231.468 79.5657 228.981 78.7169 227.134 77.0208C225.325 75.3246 224.42 73.0255 224.42 70.1233C224.42 66.995 225.494 64.602 227.643 62.9436C229.829 61.2475 232.958 60.3987 237.028 60.3987H243.474V58.0813C243.474 56.8752 243.04 55.9137 242.173 55.1975C241.344 54.4814 240.213 54.1233 238.78 54.1233C237.461 54.1233 236.368 54.4246 235.501 55.0276C234.634 55.6307 234.106 56.4605 233.918 57.5159H225.72C226.059 54.3874 227.416 51.9179 229.791 50.1086C232.203 48.2618 235.294 47.3381 239.064 47.3381ZM310.936 47.3381C313.725 47.3381 316.119 47.8667 318.116 48.9221C320.151 49.9397 321.716 51.3903 322.809 53.2747C323.939 55.1215 324.505 57.2891 324.505 59.7766V67.1272C324.505 69.6148 323.939 71.8012 322.809 73.6858C321.716 75.5325 320.152 76.984 318.116 78.0393C316.119 79.057 313.725 79.5657 310.936 79.5657C308.184 79.5657 305.79 79.057 303.755 78.0393C301.72 76.984 300.137 75.5326 299.006 73.6858C297.913 71.8012 297.366 69.6148 297.366 67.1272V59.7766C297.366 57.2891 297.913 55.1215 299.006 53.2747C300.137 51.3903 301.72 49.9398 303.755 48.9221C305.79 47.8668 308.184 47.3382 310.936 47.3381ZM109.453 79.0002H100.011L95.4883 71.6497C95.1868 71.122 94.8846 70.5753 94.5831 70.01C94.3193 69.4071 94.1117 68.9171 93.961 68.5403C93.8103 68.9171 93.6036 69.4072 93.3399 70.01C93.0761 70.5753 92.7928 71.122 92.4913 71.6497L87.9122 79.0002H78.4698L83.1524 71.9749L100.884 66.0793L109.453 79.0002ZM178.668 55.2542L163.29 71.6497H179.29V79.0002H153.282V71.6497L168.661 55.2542H153.848V47.9036H178.668V55.2542ZM204.145 47.9036H215.735V55.5364H204.145V68.8235C204.145 70.5192 204.993 71.3673 206.689 71.3674H215.17V79.0002H205.841C202.675 79.0002 200.187 78.0955 198.378 76.2864C196.569 74.4772 195.664 71.9895 195.664 68.8235V55.5364H187.466V47.9036H195.664V39.1409H204.145V47.9036ZM273.304 65.3743C273.605 66.4296 273.907 67.5797 274.208 68.8235C274.51 70.0672 274.736 71.0658 274.887 71.8196C275.075 71.0658 275.301 70.0671 275.565 68.8235C275.866 67.5797 276.149 66.4486 276.413 65.4309L281.558 47.9036H290.208L280.145 79.0002H269.516L259.338 47.9036H268.102L273.304 65.3743ZM237.197 65.2043C235.916 65.2044 234.879 65.5815 234.088 66.3352C233.296 67.0514 232.9 68.0128 232.9 69.219C232.9 70.5005 233.334 71.5179 234.201 72.2717C235.068 72.9878 236.255 73.3459 237.763 73.3459C239.421 73.3459 240.779 72.9131 241.834 72.0461C242.927 71.1415 243.474 69.9726 243.474 68.5403V65.2043H237.197ZM310.936 54.6887C309.315 54.6887 308.052 55.1217 307.148 55.9885C306.281 56.8554 305.848 58.1183 305.848 59.7766V67.1272C305.848 68.7479 306.281 70.0107 307.148 70.9153C308.052 71.7822 309.315 72.2151 310.936 72.2151C312.594 72.2151 313.857 71.7821 314.724 70.9153C315.591 70.0107 316.024 68.7479 316.024 67.1272V59.7766C316.024 58.1183 315.591 56.8554 314.724 55.9885C313.857 55.1218 312.594 54.6887 310.936 54.6887ZM92.4913 54.1233C92.7928 54.6133 93.0761 55.1599 93.3399 55.7629C93.6036 56.3658 93.8103 56.8558 93.961 57.2327C94.1117 56.8558 94.3193 56.3659 94.5831 55.7629C94.8846 55.1599 95.1679 54.6133 95.4317 54.1233L99.2764 47.9036H108.718L100.498 60.2805L83.8458 54.8528L79.2051 47.9036H88.6465L92.4913 54.1233Z" fill="white"/>
<path d="M58.5786 108.975L51.4122 70.4388L29.2371 63.5428L51.4122 56.7821L58.4433 15.9475L65.3393 56.7821L86.8383 63.5428L65.3393 70.4388L58.5786 108.975Z" fill="white"/>
<path d="M109.502 108.719C97.8866 120.041 81.9299 127.031 64.3193 127.031C63.5114 127.031 62.707 127.016 61.9062 126.987L64.4229 112.943C69.9158 114.631 75.7817 115.544 81.874 115.544C91.9178 115.544 101.345 113.063 109.502 108.719ZM51.1719 18.5381C37.5383 26.9268 28.0204 40.7411 26.0889 56.7197L4 63.2148L26.2363 69.8828C28.479 85.4943 37.9787 98.9394 51.4365 107.119L55.0957 126.382C23.9429 121.964 0 95.5015 0 63.5156C5.85084e-05 31.8034 23.535 5.51944 54.2979 0.766602L51.1719 18.5381ZM64.3193 0C80.1275 0 94.6036 5.6322 105.803 14.9746C98.5438 11.754 90.4327 9.9522 81.874 9.95215C75.7981 9.95215 69.947 10.8593 64.4668 12.5381L62.3096 0.03125C62.977 0.0110167 63.6469 4.0853e-06 64.3193 0Z" fill="white"/>
</svg>
